<svg width="375" height="387" viewBox="0 0 375 387" fill="none" xmlns="http://www.w3.org/2000/svg">
<path d="M77.0599 311.179C53.023 278.809 40.1235 239.521 40.2944 199.202C40.4653 158.884 58.4884 123.165 82.7988 91L82.7102 91.0957C59.1681 122.244 46.3542 160.183 46.1887 199.227C46.0232 238.272 58.5151 276.318 81.7923 307.665L77.0599 311.179Z" fill="url(#paint0_linear_0_1)"/>
<path d="M83.6723 312.698C83.3859 314.049 82.0587 314.912 80.7081 314.625L58.6976 309.957C57.3469 309.671 56.4842 308.344 56.7706 306.993C57.0571 305.643 58.3842 304.78 59.7349 305.066L79.2998 309.215L83.449 289.651C83.7354 288.3 85.0626 287.437 86.4132 287.724C87.7639 288.01 88.6266 289.337 88.3402 290.688L83.6723 312.698ZM79.1307 313.542L76.5581 309.585L80.7502 306.86L83.3228 310.817L79.1307 313.542Z" fill="black"/>
<path d="M115.599 43.7681L259.599 44.0711C265.122 44.0827 269.589 48.5692 269.578 54.0921L268.991 333.091C268.979 338.614 264.493 343.082 258.97 343.07L114.97 342.767C109.447 342.756 104.979 338.269 104.991 332.746L105.578 53.747C105.59 48.2242 110.076 43.7564 115.599 43.7681Z" fill="url(#paint1_linear_0_1)" stroke="black" stroke-width="6"/>
<rect x="162" y="53" width="49" height="12" rx="6" fill="black"/>
<rect x="149" y="330" width="75" height="3" rx="1.5" fill="black"/>
<path d="M291.599 88.4813C291.886 87.1306 293.213 86.2679 294.563 86.5543L316.574 91.2222C317.925 91.5086 318.787 92.8358 318.501 94.1864C318.214 95.5371 316.887 96.3998 315.537 96.1134L295.972 91.9642L291.823 111.529C291.536 112.88 290.209 113.742 288.858 113.456C287.508 113.17 286.645 111.842 286.931 110.492L291.599 88.4813ZM296.141 87.6374L298.713 91.5947L294.521 94.3199L291.949 90.3625L296.141 87.6374Z" fill="black"/>
<path d="M298.212 90.0007C322.248 122.371 335.148 161.659 334.977 201.977C334.806 242.296 316.783 278.014 292.473 310.18L292.561 310.084C316.103 278.935 328.917 240.996 329.083 201.952C329.248 162.908 316.756 124.862 293.479 93.5147L298.212 90.0007Z" fill="url(#paint2_linear_0_1)"/>
<defs>
<linearGradient id="paint0_linear_0_1" x1="218.536" y1="460.672" x2="235.049" y2="-60.6862" gradientUnits="userSpaceOnUse">
<stop offset="0.1"/>
<stop offset="1" stop-color="#666666" stop-opacity="0"/>
</linearGradient>
<linearGradient id="paint1_linear_0_1" x1="187.605" y1="40.9196" x2="186.964" y2="345.919" gradientUnits="userSpaceOnUse">
<stop stop-color="#BEBEBE"/>
<stop offset="1" stop-color="#585858"/>
</linearGradient>
<linearGradient id="paint2_linear_0_1" x1="156.736" y1="-59.4922" x2="140.223" y2="461.866" gradientUnits="userSpaceOnUse">
<stop offset="0.1"/>
<stop offset="1" stop-color="#666666" stop-opacity="0"/>
</linearGradient>
</defs>
</svg>
